<?xml version="1.0" encoding="UTF-8"?>
<svg id="Layer_2" data-name="Layer 2" xmlns="http://www.w3.org/2000/svg" viewBox="0 0 550 640">
  <g id="desk-055" opacity=".45">
    <polygon points="509.92 542.4 515.16 551.72 504.31 558.23 504.18 570.49 492.95 571.13 493.58 552.23 509.92 542.4" fill="#39b54a"/>
  </g>
  <g id="desk-054" opacity=".45">
    <polygon points="476.69 541.44 482.1 532.22 493.19 538.32 503.84 532.25 510.05 541.63 493.41 550.6 476.69 541.44" fill="#39b54a"/>
  </g>
  <g id="desk-058" opacity=".45">
    <polygon points="501.69 463.26 510.76 468.91 504.39 479.84 510.18 490.65 500.64 496.61 492.1 479.75 501.69 463.26" fill="#39b54a"/>
  </g>
  <g id="desk-059" opacity=".45">
    <polygon points="530.11 446.83 529.88 457.51 517.23 457.61 510.89 468.1 500.89 462.94 511.04 446.99 530.11 446.83" fill="#39b54a"/>
  </g>
  <g id="desk-060" opacity=".45">
    <polygon points="501.39 428.58 510.88 423.66 517.02 434.73 529.26 435.27 529.52 446.52 510.66 445.24 501.39 428.58" fill="#39b54a"/>
  </g>
  <g id="desk-066" opacity=".45">
    <polygon points="501.74 371.68 510.8 377.36 504.38 388.27 510.14 399.09 500.58 405.03 492.1 388.14 501.74 371.68" fill="#39b54a"/>
  </g>
  <g id="desk-067" opacity=".45">
    <polygon points="530.4 354.5 530.23 365.19 517.58 365.35 511.3 375.88 501.27 370.78 511.33 354.77 530.4 354.5" fill="#39b54a"/>
  </g>
  <g id="desk-069" opacity=".45">
    <polygon points="500.76 370.58 491.4 365.41 497.19 354.16 490.84 343.68 500.05 337.22 509.46 353.61 500.76 370.58" fill="#39b54a"/>
  </g>
  <g id="desk-068" opacity=".45">
    <polygon points="501.6 337.37 510.84 331.99 517.52 342.74 529.77 342.68 530.58 353.9 511.68 353.56 501.6 337.37" fill="#39b54a"/>
  </g>
  <g id="desk-074" opacity=".45">
    <polygon points="501.28 279.93 510.32 285.64 503.87 296.53 509.58 307.37 500.01 313.28 491.58 296.35 501.28 279.93" fill="#39b54a"/>
  </g>
  <g id="desk-082" opacity=".45">
    <polygon points="502.13 191.42 511.17 197.13 504.72 208.02 510.44 218.86 500.86 224.77 492.43 207.84 502.13 191.42" fill="#39b54a"/>
  </g>
  <g id="desk-073" opacity=".45">
    <polygon points="499.81 314.14 490.38 319.17 484.11 308.18 471.86 307.78 471.47 296.54 490.34 297.59 499.81 314.14" fill="#39b54a"/>
  </g>
  <g id="desk-081" opacity=".45">
    <polygon points="500.66 225.97 491.23 231 484.96 220.01 472.71 219.61 472.32 208.37 491.19 209.42 500.66 225.97" fill="#39b54a"/>
  </g>
  <g id="desk-072" opacity=".45">
    <polygon points="471.46 296.91 471.34 307.6 458.69 307.82 452.46 318.38 442.41 313.32 452.39 297.27 471.46 296.91" fill="#39b54a"/>
  </g>
  <g id="desk-080" opacity=".45">
    <polygon points="471.63 209.08 471.51 219.77 458.86 219.99 452.63 230.55 442.58 225.49 452.56 209.44 471.63 209.08" fill="#39b54a"/>
  </g>
  <g id="desk-079" opacity=".45">
    <polygon points="442.69 279.62 452.07 274.5 458.46 285.42 470.71 285.69 471.22 296.93 452.34 296.07 442.69 279.62" fill="#39b54a"/>
  </g>
  <g id="desk-087" opacity=".45">
    <polygon points="443.55 191.28 452.92 186.15 459.31 197.08 471.56 197.35 472.07 208.59 453.19 207.73 443.55 191.28" fill="#39b54a"/>
  </g>
  <g id="desk-078" opacity=".45">
    <polygon points="471.82 296.18 472.1 285.49 484.75 285.46 491.14 275 501.12 280.2 490.89 296.1 471.82 296.18" fill="#39b54a"/>
  </g>
  <g id="desk-086" opacity=".45">
    <polygon points="472.16 207.67 472.44 196.98 485.09 196.95 491.48 186.49 501.46 191.69 491.23 207.59 472.16 207.67" fill="#39b54a"/>
  </g>
  <g id="desk-077" opacity=".45">
    <polygon points="500 279.32 491.03 273.5 497.61 262.69 492.02 251.78 501.67 245.99 509.89 263.02 500 279.32" fill="#39b54a"/>
  </g>
  <g id="desk-085" opacity=".45">
    <polygon points="499.66 190.98 490.69 185.16 497.27 174.35 491.68 163.44 501.33 157.65 509.55 174.67 499.66 190.98" fill="#39b54a"/>
  </g>
  <g id="desk-076" opacity=".45">
    <polygon points="501.46 245.89 510.73 240.56 517.35 251.35 529.6 251.35 530.35 262.58 511.45 262.13 501.46 245.89" fill="#39b54a"/>
  </g>
  <g id="desk-084" opacity=".45">
    <polygon points="501.12 157.55 510.39 152.22 517.01 163.01 529.26 163.01 530.01 174.24 511.11 173.79 501.12 157.55" fill="#39b54a"/>
  </g>
  <g id="desk-075" opacity=".45">
    <polygon points="530.55 263.24 530.4 273.93 517.75 274.12 511.5 284.66 501.45 279.58 511.48 263.55 530.55 263.24" fill="#39b54a"/>
  </g>
  <g id="desk-083" opacity=".45">
    <polygon points="530.89 175.07 530.74 185.76 518.09 185.95 511.84 196.49 501.8 191.41 511.82 175.38 530.89 175.07" fill="#39b54a"/>
  </g>
  <g id="desk-065" opacity=".45">
    <polygon points="500.51 405.1 491.24 410.42 484.63 399.63 472.37 399.62 471.63 388.39 490.53 388.85 500.51 405.1" fill="#39b54a"/>
  </g>
  <g id="desk-064" opacity=".45">
    <polygon points="471.46 388.61 471.53 399.3 458.88 399.75 452.84 410.41 442.7 405.53 452.4 389.31 471.46 388.61" fill="#39b54a"/>
  </g>
  <g id="desk-071" opacity=".45">
    <polygon points="442.37 370.65 451.76 365.55 458.12 376.49 470.37 376.78 470.85 388.03 451.97 387.13 442.37 370.65" fill="#39b54a"/>
  </g>
  <g id="desk-070" opacity=".45">
    <polygon points="471.69 387.23 472.12 376.55 484.77 376.7 491.31 366.33 501.21 371.68 490.76 387.43 471.69 387.23" fill="#39b54a"/>
  </g>
  <g id="desk-061" opacity=".45">
    <polygon points="500.84 462.53 491.57 457.22 497.55 446.06 491.37 435.47 500.69 429.17 509.83 445.71 500.84 462.53" fill="#39b54a"/>
  </g>
  <g id="desk-058-2" data-name="desk-058" opacity=".45">
    <polygon points="500.52 496.31 491.26 501.65 484.63 490.87 472.37 490.87 471.61 479.65 490.51 480.08 500.52 496.31" fill="#39b54a"/>
  </g>
  <g id="desk-056" opacity=".45">
    <polygon points="471.04 480.08 471.2 490.77 458.56 491.33 452.6 502.04 442.42 497.25 451.99 480.94 471.04 480.08" fill="#39b54a"/>
  </g>
  <g id="desk-063" opacity=".45">
    <polygon points="442.93 462.78 452.37 457.76 458.63 468.76 470.88 469.16 471.26 480.41 452.39 479.34 442.93 462.78" fill="#39b54a"/>
  </g>
  <g id="desk-062" opacity=".45">
    <polygon points="471.92 479.33 471.9 468.64 484.55 468.25 490.63 457.62 500.75 462.54 490.98 478.72 471.92 479.33" fill="#39b54a"/>
  </g>
  <g id="desk-053" opacity=".45">
    <polygon points="492.19 571.11 481.5 570.94 481.34 558.29 470.81 552.01 475.91 541.98 491.92 552.04 492.19 571.11" fill="#39b54a"/>
  </g>
  <g id="desk-050" opacity=".45">
    <polygon points="436.16 518.7 446.85 518.56 447.38 531.2 458.08 537.17 453.27 547.34 436.98 537.75 436.16 518.7" fill="#39b54a"/>
  </g>
  <g id="desk-051" opacity=".45">
    <polygon points="452.88 548.91 447.2 557.97 436.29 551.56 425.47 557.33 419.53 547.77 436.42 539.28 452.88 548.91" fill="#39b54a"/>
  </g>
  <g id="desk-052" opacity=".45">
    <polygon points="418.35 548.35 423.88 557.49 413.25 564.35 413.52 576.6 402.31 577.6 402.34 558.7 418.35 548.35" fill="#39b54a"/>
  </g>
  <g id="desk-047" opacity=".45">
    <polygon points="401.82 577.57 391.13 577.41 390.95 564.76 380.42 558.49 385.51 548.46 401.53 558.5 401.82 577.57" fill="#39b54a"/>
  </g>
  <g id="desk-048" opacity=".45">
    <polygon points="385.57 546.98 391.5 538.09 402.22 544.81 413.2 539.36 418.87 549.09 401.74 557.09 385.57 546.98" fill="#39b54a"/>
  </g>
  <g id="desk-049" opacity=".45">
    <polygon points="418.89 547.87 413.83 538.45 424.8 532.14 425.16 519.89 436.4 519.46 435.41 538.34 418.89 547.87" fill="#39b54a"/>
  </g>
  <g id="desk-089" opacity=".45">
    <polygon points="407.58 122.19 407.41 100.23 396.52 100.06 396.52 122.02 407.58 122.19" fill="#39b54a" opacity=".25"/>
  </g>
  <g id="desk-090" opacity=".45">
    <polygon points="407.75 99.89 407.58 77.93 396.69 77.76 396.69 99.72 407.75 99.89" fill="#39b54a" opacity=".25"/>
  </g>
  <g id="desk-091" opacity=".45">
    <polygon points="407.75 77.42 407.58 55.47 396.69 55.3 396.69 77.25 407.75 77.42" fill="#39b54a" opacity=".25"/>
  </g>
  <g id="desk-092" opacity=".45">
    <polygon points="407.58 54.79 407.41 32.83 396.52 32.66 396.52 54.62 407.58 54.79" fill="#39b54a" opacity=".25"/>
  </g>
  <g id="desk-096" opacity=".45">
    <polygon points="396.35 54.28 396.18 32.32 385.29 32.15 385.29 54.11 396.35 54.28" fill="#39b54a" opacity=".25"/>
  </g>
  <g id="desk-095" opacity=".45">
    <polygon points="396.18 77.08 396.01 55.13 385.12 54.96 385.12 76.91 396.18 77.08" fill="#39b54a" opacity=".25"/>
  </g>
  <g id="desk-093" opacity=".45">
    <polygon points="395.84 122.19 395.67 100.23 384.78 100.06 384.78 122.02 395.84 122.19" fill="#39b54a" opacity=".25"/>
  </g>
  <g id="desk-094" opacity=".45">
    <polygon points="396.18 99.72 396.01 77.76 385.12 77.59 385.12 99.55 396.18 99.72" fill="#39b54a" opacity=".25"/>
  </g>
  <g id="desk-097" opacity=".45">
    <polygon points="256.78 122.19 256.6 100.23 245.71 100.06 245.71 122.02 256.78 122.19" fill="#39b54a" opacity=".25"/>
  </g>
  <g id="desk-098" opacity=".45">
    <polygon points="256.95 99.89 256.78 77.93 245.88 77.76 245.88 99.72 256.95 99.89" fill="#39b54a" opacity=".25"/>
  </g>
  <g id="desk-099" opacity=".45">
    <polygon points="256.95 77.42 256.78 55.47 245.88 55.3 245.88 77.25 256.95 77.42" fill="#39b54a" opacity=".25"/>
  </g>
  <g id="desk-100" opacity=".45">
    <polygon points="256.78 54.79 256.6 32.83 245.71 32.66 245.71 54.62 256.78 54.79" fill="#39b54a" opacity=".25"/>
  </g>
  <g id="desk-104" opacity=".45">
    <polygon points="245.54 54.28 245.37 32.32 234.48 32.15 234.48 54.11 245.54 54.28" fill="#39b54a" opacity=".25"/>
  </g>
  <g id="desk-103" opacity=".45">
    <polygon points="245.37 77.08 245.2 55.13 234.31 54.96 234.31 76.91 245.37 77.08" fill="#39b54a" opacity=".25"/>
  </g>
  <g id="desk-101" opacity=".45">
    <polygon points="245.03 122.19 244.86 100.23 233.97 100.06 233.97 122.02 245.03 122.19" fill="#39b54a" opacity=".25"/>
  </g>
  <g id="desk-102" opacity=".45">
    <polygon points="245.37 99.72 245.2 77.76 234.31 77.59 234.31 99.55 245.37 99.72" fill="#39b54a" opacity=".25"/>
  </g>
  <g id="desk-105" opacity=".45">
    <polygon points="206.73 122.19 206.56 100.23 195.67 100.06 195.67 122.02 206.73 122.19" fill="#39b54a" opacity=".25"/>
  </g>
  <g id="desk-106" opacity=".45">
    <polygon points="206.9 99.89 206.73 77.93 195.84 77.76 195.84 99.72 206.9 99.89" fill="#39b54a" opacity=".25"/>
  </g>
  <g id="desk-107" opacity=".45">
    <polygon points="206.9 77.42 206.73 55.47 195.84 55.3 195.84 77.25 206.9 77.42" fill="#39b54a" opacity=".25"/>
  </g>
  <g id="desk-108" opacity=".45">
    <polygon points="206.73 54.79 206.56 32.83 195.67 32.66 195.67 54.62 206.73 54.79" fill="#39b54a" opacity=".25"/>
  </g>
  <g id="desk-112" opacity=".45">
    <polygon points="195.5 54.28 195.33 32.32 184.43 32.15 184.43 54.11 195.5 54.28" fill="#39b54a" opacity=".25"/>
  </g>
  <g id="desk-111" opacity=".45">
    <polygon points="195.33 77.08 195.16 55.13 184.26 54.96 184.26 76.91 195.33 77.08" fill="#39b54a" opacity=".25"/>
  </g>
  <g id="desk-109" opacity=".45">
    <polygon points="194.99 122.19 194.82 100.23 183.92 100.06 183.92 122.02 194.99 122.19" fill="#39b54a" opacity=".25"/>
  </g>
  <g id="desk-110" opacity=".45">
    <polygon points="195.33 99.72 195.16 77.76 184.26 77.59 184.26 99.55 195.33 99.72" fill="#39b54a" opacity=".25"/>
  </g>
  <g id="desk-027" opacity=".45">
    <polygon points="180.05 598.46 179.88 576.51 168.99 576.34 168.99 598.29 180.05 598.46" fill="#39b54a" opacity=".25"/>
  </g>
  <g id="desk-026" opacity=".45">
    <polygon points="180.22 576.17 180.05 554.21 169.16 554.04 169.16 576 180.22 576.17" fill="#39b54a" opacity=".25"/>
  </g>
  <g id="desk-025" opacity=".45">
    <polygon points="180.22 553.7 180.05 531.74 169.16 531.57 169.16 553.53 180.22 553.7" fill="#39b54a" opacity=".25"/>
  </g>
  <g id="desk-024" opacity=".45">
    <polygon points="179.8 530.8 179.63 508.85 168.73 508.68 168.73 530.63 179.8 530.8" fill="#39b54a" opacity=".25"/>
  </g>
  <g id="desk-020" opacity=".45">
    <polygon points="167.8 530.8 167.63 508.85 156.73 508.68 156.73 530.63 167.8 530.8" fill="#39b54a" opacity=".25"/>
  </g>
  <g id="desk-021" opacity=".45">
    <polygon points="168.52 553.23 168.35 531.27 157.46 531.1 157.46 553.06 168.52 553.23" fill="#39b54a" opacity=".25"/>
  </g>
  <g id="desk-016" opacity=".45">
    <polygon points="128.6 538.75 106.64 538.93 106.48 549.83 128.44 549.82 128.6 538.75" fill="#39b54a" opacity=".25"/>
  </g>
  <g id="desk-015" opacity=".45">
    <polygon points="105.96 538.93 84.01 539.11 83.84 550.01 105.8 550 105.96 538.93" fill="#39b54a" opacity=".25"/>
  </g>
  <g id="desk-017" opacity=".45">
    <polygon points="105.46 550.17 83.5 550.35 83.33 561.24 105.29 561.23 105.46 550.17" fill="#39b54a" opacity=".25"/>
  </g>
  <g id="desk-018" opacity=".45">
    <polygon points="128.27 550.33 106.31 550.51 106.14 561.4 128.1 561.39 128.27 550.33" fill="#39b54a" opacity=".25"/>
  </g>
  <g id="desk-012" opacity=".45">
    <polygon points="129.62 489.22 107.67 489.4 107.5 500.29 129.46 500.29 129.62 489.22" fill="#39b54a" opacity=".25"/>
  </g>
  <g id="desk-011" opacity=".45">
    <polygon points="106.98 489.4 85.03 489.58 84.86 500.47 106.82 500.46 106.98 489.4" fill="#39b54a" opacity=".25"/>
  </g>
  <g id="desk-013" opacity=".45">
    <polygon points="106.48 500.63 84.52 500.81 84.36 511.71 106.31 511.7 106.48 500.63" fill="#39b54a" opacity=".25"/>
  </g>
  <g id="desk-014" opacity=".45">
    <polygon points="129.29 500.8 107.33 500.97 107.16 511.87 129.12 511.86 129.29 500.8" fill="#39b54a" opacity=".25"/>
  </g>
  <g id="desk-004" opacity=".45">
    <polygon points="63.75 476.97 41.79 477.14 41.63 488.04 63.59 488.03 63.75 476.97" fill="#39b54a" opacity=".25"/>
  </g>
  <g id="desk-003" opacity=".45">
    <polygon points="41.11 477.15 19.16 477.32 18.99 488.22 40.95 488.21 41.11 477.15" fill="#39b54a" opacity=".25"/>
  </g>
  <g id="desk-005" opacity=".45">
    <polygon points="40.61 488.38 18.65 488.56 18.48 499.45 40.44 499.44 40.61 488.38" fill="#39b54a" opacity=".25"/>
  </g>
  <g id="desk-006" opacity=".45">
    <polygon points="63.42 488.54 41.46 488.72 41.29 499.61 63.25 499.6 63.42 488.54" fill="#39b54a" opacity=".25"/>
  </g>
  <g id="desk-008" opacity=".45">
    <polygon points="63.75 528.03 41.79 528.21 41.63 539.1 63.59 539.09 63.75 528.03" fill="#39b54a" opacity=".25"/>
  </g>
  <g id="desk-007" opacity=".45">
    <polygon points="41.11 528.21 19.16 528.39 18.99 539.28 40.95 539.27 41.11 528.21" fill="#39b54a" opacity=".25"/>
  </g>
  <g id="desk-009" opacity=".45">
    <polygon points="40.61 539.44 18.65 539.62 18.48 550.52 40.44 550.51 40.61 539.44" fill="#39b54a" opacity=".25"/>
  </g>
  <g id="desk-010" opacity=".45">
    <polygon points="63.42 539.6 41.46 539.78 41.29 550.68 63.25 550.67 63.42 539.6" fill="#39b54a" opacity=".25"/>
  </g>
  <g id="desk-023" opacity=".45">
    <polygon points="168.18 598.34 168.01 576.38 157.12 576.21 157.12 598.17 168.18 598.34" fill="#39b54a" opacity=".25"/>
  </g>
  <g id="desk-022" opacity=".45">
    <polygon points="168.52 575.87 168.35 553.91 157.46 553.74 157.46 575.7 168.52 575.87" fill="#39b54a" opacity=".25"/>
  </g>
  <g id="desk-035" opacity=".45">
    <polygon points="230.22 600.38 230.05 578.42 219.16 578.25 219.16 600.21 230.22 600.38" fill="#39b54a" opacity=".25"/>
  </g>
  <g id="desk-034" opacity=".45">
    <polygon points="230.39 578.08 230.22 556.12 219.33 555.95 219.33 577.91 230.39 578.08" fill="#39b54a" opacity=".25"/>
  </g>
  <g id="desk-033" opacity=".45">
    <polygon points="230.39 555.61 230.22 533.66 219.33 533.49 219.33 555.44 230.39 555.61" fill="#39b54a" opacity=".25"/>
  </g>
  <g id="desk-032" opacity=".45">
    <polygon points="230.22 532.97 230.05 511.02 219.16 510.85 219.16 532.8 230.22 532.97" fill="#39b54a" opacity=".25"/>
  </g>
  <g id="desk-028" opacity=".45">
    <polygon points="218.99 532.46 218.82 510.51 207.93 510.34 207.93 532.29 218.99 532.46" fill="#39b54a" opacity=".25"/>
  </g>
  <g id="desk-029" opacity=".45">
    <polygon points="218.82 555.27 218.65 533.32 207.76 533.15 207.76 555.1 218.82 555.27" fill="#39b54a" opacity=".25"/>
  </g>
  <g id="desk-031" opacity=".45">
    <polygon points="218.48 600.38 218.31 578.42 207.41 578.25 207.41 600.21 218.48 600.38" fill="#39b54a" opacity=".25"/>
  </g>
  <g id="desk-030" opacity=".45">
    <polygon points="218.82 577.91 218.65 555.95 207.76 555.78 207.76 577.74 218.82 577.91" fill="#39b54a" opacity=".25"/>
  </g>
  <g id="desk-043" opacity=".45">
    <polygon points="284.86 600.12 284.69 578.17 273.8 578 273.8 599.95 284.86 600.12" fill="#39b54a" opacity=".25"/>
  </g>
  <g id="desk-042" opacity=".45">
    <polygon points="285.03 577.83 284.86 555.87 273.97 555.7 273.97 577.66 285.03 577.83" fill="#39b54a" opacity=".25"/>
  </g>
  <g id="desk-041" opacity=".45">
    <polygon points="285.03 555.36 284.86 533.4 273.97 533.23 273.97 555.19 285.03 555.36" fill="#39b54a" opacity=".25"/>
  </g>
  <g id="desk-040" opacity=".45">
    <polygon points="284.86 532.72 284.69 510.76 273.8 510.59 273.8 532.55 284.86 532.72" fill="#39b54a" opacity=".25"/>
  </g>
  <g id="desk-036" opacity=".45">
    <polygon points="273.63 532.21 273.46 510.25 262.56 510.08 262.56 532.04 273.63 532.21" fill="#39b54a" opacity=".25"/>
  </g>
  <g id="desk-037" opacity=".45">
    <polygon points="273.46 555.02 273.29 533.06 262.39 532.89 262.39 554.85 273.46 555.02" fill="#39b54a" opacity=".25"/>
  </g>
  <g id="desk-039" opacity=".45">
    <polygon points="273.12 600.12 272.95 578.17 262.05 578 262.05 599.95 273.12 600.12" fill="#39b54a" opacity=".25"/>
  </g>
  <g id="desk-038" opacity=".45">
    <polygon points="273.46 577.66 273.29 555.7 262.39 555.53 262.39 577.49 273.46 577.66" fill="#39b54a" opacity=".25"/>
  </g>
  <g id="desk-019" opacity=".45">
    <polygon points="67.97 585.81 80.99 585.55 80.86 579.81 57.24 579.93 57.37 603.68 67.46 604.06 67.97 585.81" fill="#39b54a"/>
  </g>
  <g id="desk-088" opacity=".45">
    <polygon points="441.12 83.59 430.65 83.47 430.9 107.21 454.65 107.47 454.52 101.59 441.24 101.59 441.12 83.59" fill="#39b54a" opacity=".25"/>
  </g>
  <g id="desk-002" opacity=".45">
    <polygon points="11.16 445.25 22.22 445.25 22.05 427.21 10.99 427.04 11.16 445.25" fill="#39b54a" opacity=".25"/>
  </g>
  <g id="desk-001" opacity=".45">
    <polygon points="10.99 407.98 10.99 426.19 22.39 426.36 22.22 408.32 10.99 407.98" fill="#39b54a" opacity=".25"/>
  </g>
  <g id="desk-044" opacity=".45">
    <polygon points="396.01 598.28 396.18 609.17 414.56 609.34 414.39 598.45 396.01 598.28" fill="#39b54a"/>
  </g>
  <g id="desk-045" opacity=".45">
    <polygon points="415.24 598.28 415.24 609 432.95 609 433.12 598.45 415.24 598.28" fill="#39b54a"/>
  </g>
  <g id="desk-046" opacity=".45">
    <polygon points="458.65 590.79 458.31 585.17 433.8 585.34 433.63 609 444.52 609.17 444.69 592.15 458.65 590.79" fill="#39b54a"/>
  </g>
</svg>